Bodoni-16-Fatface-Italic.ufo
<glyph name="dollar" format="1">
  <advance width="2641"/>
  <unicode hex="0024"/>
  <outline>
    <contour>
      <point x="1634" y="3400" type="line"/>
      <point x="1704" y="3400" type="line"/>
      <point x="844" y="-328" type="line"/>
      <point x="774" y="-328" type="line"/>
    </contour>
    <contour>
      <point x="1921" y="3400" type="line"/>
      <point x="1991" y="3400" type="line"/>
      <point x="1130" y="-328" type="line"/>
      <point x="1061" y="-328" type="line"/>
    </contour>
    <contour>
      <point x="1229" y="2601" type="curve" smooth="yes"/>
      <point x="1229" y="1966"/>
      <point x="2519" y="2212"/>
      <point x="2519" y="1147" type="curve" smooth="yes"/>
      <point x="2519" y="369"/>
      <point x="1704" y="-61"/>
      <point x="1126" y="-61" type="curve" smooth="yes"/>
      <point x="569" y="-61"/>
      <point x="123" y="286"/>
      <point x="123" y="737" type="curve" smooth="yes"/>
      <point x="123" y="966"/>
      <point x="270" y="1176"/>
      <point x="532" y="1176" type="curve" smooth="yes"/>
      <point x="737" y="1176"/>
      <point x="918" y="1024"/>
      <point x="918" y="803" type="curve" smooth="yes"/>
      <point x="918" y="516"/>
      <point x="721" y="393"/>
      <point x="500" y="393" type="curve" smooth="yes"/>
      <point x="389" y="393"/>
      <point x="295" y="438"/>
      <point x="242" y="487" type="curve"/>
      <point x="340" y="266"/>
      <point x="651" y="-4"/>
      <point x="1126" y="-4" type="curve" smooth="yes"/>
      <point x="1560" y="-4"/>
      <point x="1823" y="270"/>
      <point x="1823" y="553" type="curve" smooth="yes"/>
      <point x="1823" y="1270"/>
      <point x="532" y="922"/>
      <point x="532" y="1987" type="curve" smooth="yes"/>
      <point x="532" y="2683"/>
      <point x="1294" y="3113"/>
      <point x="1831" y="3113" type="curve" smooth="yes"/>
      <point x="2273" y="3113"/>
      <point x="2683" y="2831"/>
      <point x="2683" y="2458" type="curve" smooth="yes"/>
      <point x="2683" y="2270"/>
      <point x="2548" y="2056"/>
      <point x="2286" y="2056" type="curve" smooth="yes"/>
      <point x="2081" y="2056"/>
      <point x="1888" y="2187"/>
      <point x="1888" y="2437" type="curve" smooth="yes"/>
      <point x="1888" y="2683"/>
      <point x="2114" y="2802"/>
      <point x="2294" y="2802" type="curve" smooth="yes"/>
      <point x="2417" y="2802"/>
      <point x="2511" y="2740"/>
      <point x="2544" y="2703" type="curve"/>
      <point x="2458" y="2863"/>
      <point x="2204" y="3047"/>
      <point x="1831" y="3047" type="curve" smooth="yes"/>
      <point x="1397" y="3047"/>
      <point x="1229" y="2802"/>
    </contour>
  </outline>
</glyph>
<glyph name="comma" format="1">
  <advance width="1372"/>
  <unicode hex="002C"/>
  <outline>
    <contour>
      <point x="164" y="446" type="curve" smooth="yes"/>
      <point x="164" y="704"/>
      <point x="405" y="934"/>
      <point x="684" y="934" type="curve" smooth="yes"/>
      <point x="967" y="934"/>
      <point x="1217" y="725"/>
      <point x="1217" y="344" type="curve" smooth="yes"/>
      <point x="1217" y="-303"/>
      <point x="483" y="-639"/>
      <point x="-131" y="-639" type="curve"/>
      <point x="-131" y="-582" type="line"/>
      <point x="397" y="-582"/>
      <point x="1135" y="-299"/>
      <point x="1155" y="336" type="curve"/>
      <point x="1081" y="123"/>
      <point x="856" y="-41"/>
      <point x="635" y="-41" type="curve" smooth="yes"/>
      <point x="361" y="-41"/>
      <point x="164" y="188"/>
    </contour>
  </outline>
</glyph>
<glyph name="one" format="1">
  <advance width="2273"/>
  <unicode hex="0031"/>
  <outline>
    <contour>
      <point x="-164" y="57" type="line"/>
      <point x="1618" y="57" type="line"/>
      <point x="1618" y="0" type="line"/>
      <point x="-164" y="0" type="line"/>
    </contour>
    <contour>
      <point x="967" y="3015" type="line"/>
      <point x="500" y="3015" type="line"/>
      <point x="500" y="3072" type="line"/>
      <point x="1864" y="3072" type="line"/>
      <point x="1167" y="0" type="line"/>
      <point x="287" y="0" type="line"/>
    </contour>
  </outline>
</glyph>
<glyph name="two" format="1">
  <advance width="2703"/>
  <unicode hex="0032"/>
  <outline>
    <contour>
      <point x="475" y="2265" type="curve"/>
      <point x="520" y="2429"/>
      <point x="705" y="2589"/>
      <point x="926" y="2589" type="curve" smooth="yes"/>
      <point x="1180" y="2589"/>
      <point x="1360" y="2413"/>
      <point x="1360" y="2175" type="curve" smooth="yes"/>
      <point x="1360" y="1888"/>
      <point x="1093" y="1688"/>
      <point x="868" y="1688" type="curve" smooth="yes"/>
      <point x="643" y="1688"/>
      <point x="389" y="1831"/>
      <point x="389" y="2167" type="curve" smooth="yes"/>
      <point x="389" y="2646"/>
      <point x="975" y="3113"/>
      <point x="1700" y="3113" type="curve" smooth="yes"/>
      <point x="2114" y="3113"/>
      <point x="2650" y="2990"/>
      <point x="2650" y="2474" type="curve" smooth="yes"/>
      <point x="2650" y="1925"/>
      <point x="1704" y="1540"/>
      <point x="1294" y="1290" type="curve" smooth="yes"/>
      <point x="594" y="860" type="line"/>
      <point x="2331" y="860" type="line"/>
      <point x="2404" y="1167" type="line"/>
      <point x="2462" y="1167" type="line"/>
      <point x="2187" y="0" type="line"/>
      <point x="-168" y="0" type="line"/>
      <point x="-29" y="553" type="line"/>
      <point x="975" y="1171" type="line" smooth="yes"/>
      <point x="1475" y="1478"/>
      <point x="1741" y="2032"/>
      <point x="1741" y="2433" type="curve" smooth="yes"/>
      <point x="1741" y="2752"/>
      <point x="1601" y="2933"/>
      <point x="1282" y="2933" type="curve" smooth="yes"/>
      <point x="922" y="2933"/>
      <point x="504" y="2593"/>
    </contour>
  </outline>
</glyph>
<glyph name="three" format="1">
  <advance width="2584"/>
  <unicode hex="0033"/>
  <outline>
    <contour>
      <point x="573" y="2458" type="curve" smooth="yes"/>
      <point x="573" y="2835"/>
      <point x="1020" y="3109"/>
      <point x="1520" y="3109" type="curve" smooth="yes"/>
      <point x="2057" y="3109"/>
      <point x="2626" y="2958"/>
      <point x="2626" y="2466" type="curve" smooth="yes"/>
      <point x="2626" y="1934"/>
      <point x="1962" y="1647"/>
      <point x="1016" y="1647" type="curve"/>
      <point x="1016" y="1688" type="line"/>
      <point x="1667" y="1688"/>
      <point x="1761" y="2404"/>
      <point x="1761" y="2666" type="curve" smooth="yes"/>
      <point x="1761" y="2969"/>
      <point x="1659" y="3043"/>
      <point x="1417" y="3043" type="curve" smooth="yes"/>
      <point x="1192" y="3043"/>
      <point x="930" y="2936"/>
      <point x="803" y="2789" type="curve"/>
      <point x="836" y="2822"/>
      <point x="934" y="2863"/>
      <point x="1053" y="2863" type="curve" smooth="yes"/>
      <point x="1303" y="2863"/>
      <point x="1450" y="2658"/>
      <point x="1450" y="2433" type="curve" smooth="yes"/>
      <point x="1450" y="2187"/>
      <point x="1237" y="1999"/>
      <point x="1012" y="1999" type="curve" smooth="yes"/>
      <point x="766" y="1999"/>
      <point x="573" y="2208"/>
    </contour>
    <contour>
      <point x="20" y="741" type="curve" smooth="yes"/>
      <point x="20" y="1032"/>
      <point x="205" y="1233"/>
      <point x="471" y="1233" type="curve" smooth="yes"/>
      <point x="717" y="1233"/>
      <point x="897" y="1028"/>
      <point x="897" y="799" type="curve" smooth="yes"/>
      <point x="897" y="545"/>
      <point x="701" y="369"/>
      <point x="459" y="369" type="curve" smooth="yes"/>
      <point x="328" y="369"/>
      <point x="201" y="426"/>
      <point x="152" y="475" type="curve"/>
      <point x="230" y="287"/>
      <point x="471" y="20"/>
      <point x="905" y="20" type="curve" smooth="yes"/>
      <point x="1392" y="20"/>
      <point x="1516" y="762"/>
      <point x="1516" y="1147" type="curve" smooth="yes"/>
      <point x="1516" y="1450"/>
      <point x="1381" y="1634"/>
      <point x="1016" y="1634" type="curve"/>
      <point x="1016" y="1675" type="line"/>
      <point x="1880" y="1675"/>
      <point x="2380" y="1459"/>
      <point x="2380" y="967" type="curve" smooth="yes"/>
      <point x="2380" y="287"/>
      <point x="1605" y="-41"/>
      <point x="946" y="-41" type="curve" smooth="yes"/>
      <point x="323" y="-41"/>
      <point x="20" y="405"/>
    </contour>
  </outline>
</glyph>
<glyph name="five" format="1">
  <advance width="2568"/>
  <unicode hex="0035"/>
  <outline>
    <contour>
      <point x="2400" y="1106" type="curve" smooth="yes"/>
      <point x="2400" y="328"/>
      <point x="1503" y="-41"/>
      <point x="885" y="-41" type="curve" smooth="yes"/>
      <point x="303" y="-41"/>
      <point x="0" y="274"/>
      <point x="0" y="651" type="curve" smooth="yes"/>
      <point x="0" y="901"/>
      <point x="192" y="1110"/>
      <point x="438" y="1110" type="curve" smooth="yes"/>
      <point x="663" y="1110"/>
      <point x="877" y="922"/>
      <point x="877" y="676" type="curve" smooth="yes"/>
      <point x="877" y="410"/>
      <point x="680" y="246"/>
      <point x="438" y="246" type="curve" smooth="yes"/>
      <point x="282" y="246"/>
      <point x="172" y="332"/>
      <point x="139" y="373" type="curve"/>
      <point x="241" y="172"/>
      <point x="455" y="12"/>
      <point x="844" y="12" type="curve" smooth="yes"/>
      <point x="1372" y="12"/>
      <point x="1520" y="844"/>
      <point x="1520" y="1311" type="curve" smooth="yes"/>
      <point x="1520" y="1614"/>
      <point x="1372" y="1720"/>
      <point x="1171" y="1720" type="curve" smooth="yes"/>
      <point x="929" y="1720"/>
      <point x="639" y="1605"/>
      <point x="500" y="1421" type="curve"/>
      <point x="446" y="1421" type="line"/>
      <point x="593" y="1654"/>
      <point x="970" y="1802"/>
      <point x="1343" y="1802" type="curve" smooth="yes"/>
      <point x="1921" y="1802"/>
      <point x="2400" y="1638"/>
    </contour>
    <contour>
      <point x="2544" y="2212" type="line"/>
      <point x="745" y="2212" type="line"/>
      <point x="471" y="1421" type="line"/>
      <point x="422" y="1421" type="line"/>
      <point x="971" y="3072" type="line"/>
      <point x="2683" y="3072" type="line"/>
      <point x="2736" y="3297" type="line"/>
      <point x="2793" y="3297" type="line"/>
    </contour>
  </outline>
</glyph>
<glyph name="six" format="1">
  <advance width="2703"/>
  <unicode hex="0036"/>
  <outline>
    <contour>
      <point x="1720" y="1597" type="curve" smooth="yes"/>
      <point x="1720" y="1818"/>
      <point x="1691" y="1896"/>
      <point x="1593" y="1896" type="curve" smooth="yes"/>
      <point x="1220" y="1896"/>
      <point x="1036" y="762"/>
      <point x="1036" y="328" type="curve"/>
      <point x="975" y="328" type="line"/>
      <point x="975" y="762"/>
      <point x="1065" y="2028"/>
      <point x="1741" y="2028" type="curve" smooth="yes"/>
      <point x="2155" y="2028"/>
      <point x="2621" y="1802"/>
      <point x="2621" y="1229" type="curve" smooth="yes"/>
      <point x="2621" y="451"/>
      <point x="1863" y="-41"/>
      <point x="1163" y="-41" type="curve" smooth="yes"/>
      <point x="626" y="-41"/>
      <point x="205" y="246"/>
      <point x="205" y="901" type="curve" smooth="yes"/>
      <point x="205" y="1937"/>
      <point x="1319" y="3113"/>
      <point x="2724" y="3113" type="curve"/>
      <point x="2724" y="3064" type="line"/>
      <point x="1634" y="3064"/>
      <point x="1040" y="1540"/>
      <point x="1040" y="754" type="curve"/>
      <point x="1036" y="328" type="line"/>
      <point x="1036" y="148"/>
      <point x="1086" y="16"/>
      <point x="1192" y="16" type="curve" smooth="yes"/>
      <point x="1479" y="16"/>
      <point x="1720" y="1171"/>
    </contour>
  </outline>
</glyph>
<glyph name="question" format="1">
  <advance width="2539"/>
  <unicode hex="003F"/>
  <outline>
    <contour>
      <point x="1257" y="1462" type="curve"/>
      <point x="1184" y="1143" type="line"/>
      <point x="1126" y="1143" type="line"/>
      <point x="1208" y="1503" type="line"/>
      <point x="1687" y="1630"/>
      <point x="1860" y="2240"/>
      <point x="1860" y="2662" type="curve" smooth="yes"/>
      <point x="1860" y="2883"/>
      <point x="1782" y="3052"/>
      <point x="1581" y="3052" type="curve" smooth="yes"/>
      <point x="1155" y="3052"/>
      <point x="836" y="2764"/>
      <point x="754" y="2576" type="curve"/>
      <point x="815" y="2637"/>
      <point x="930" y="2703"/>
      <point x="1053" y="2703" type="curve" smooth="yes"/>
      <point x="1254" y="2703"/>
      <point x="1450" y="2539"/>
      <point x="1450" y="2314" type="curve" smooth="yes"/>
      <point x="1450" y="2068"/>
      <point x="1237" y="1880"/>
      <point x="1012" y="1880" type="curve" smooth="yes"/>
      <point x="725" y="1880"/>
      <point x="614" y="2089"/>
      <point x="614" y="2339" type="curve" smooth="yes"/>
      <point x="614" y="2675"/>
      <point x="1081" y="3113"/>
      <point x="1622" y="3113" type="curve" smooth="yes"/>
      <point x="2077" y="3113"/>
      <point x="2724" y="2950"/>
      <point x="2724" y="2458" type="curve" smooth="yes"/>
      <point x="2724" y="1725"/>
      <point x="1892" y="1495"/>
    </contour>
    <component base="period" xOffset="610"/>
  </outline>
</glyph>
<glyph name="C" format="1">
  <advance width="2981"/>
  <unicode hex="0043"/>
  <outline>
    <contour>
      <point x="1454" y="-41" type="curve" smooth="yes"/>
      <point x="704" y="-41"/>
      <point x="205" y="376"/>
      <point x="205" y="1044" type="curve" smooth="yes"/>
      <point x="205" y="2162"/>
      <point x="1032" y="3113"/>
      <point x="2068" y="3113" type="curve" smooth="yes"/>
      <point x="2633" y="3113"/>
      <point x="2916" y="2695"/>
      <point x="3031" y="2109" type="curve"/>
      <point x="2974" y="2109" type="line"/>
      <point x="2818" y="2764"/>
      <point x="2494" y="3019"/>
      <point x="2232" y="3019" type="curve" smooth="yes"/>
      <point x="1478" y="3019"/>
      <point x="1106" y="1462"/>
      <point x="1106" y="717" type="curve" smooth="yes"/>
      <point x="1106" y="340"/>
      <point x="1143" y="45"/>
      <point x="1569" y="45" type="curve" smooth="yes"/>
      <point x="1995" y="45"/>
      <point x="2379" y="496"/>
      <point x="2748" y="963" type="curve"/>
      <point x="2806" y="963" type="line"/>
      <point x="2478" y="459"/>
      <point x="2040" y="-41"/>
    </contour>
    <contour>
      <point x="2974" y="2109" type="line"/>
      <point x="2929" y="2408" type="line"/>
      <point x="2904" y="2490"/>
      <point x="2744" y="2724"/>
      <point x="2703" y="2773" type="curve"/>
      <point x="3207" y="3072" type="line"/>
      <point x="3248" y="3072" type="line"/>
      <point x="3031" y="2109" type="line"/>
    </contour>
    <contour>
      <point x="2748" y="963" type="line"/>
      <point x="2806" y="963" type="line"/>
      <point x="2580" y="0" type="line"/>
      <point x="2540" y="0" type="line"/>
      <point x="2167" y="279" type="line"/>
      <point x="2224" y="328"/>
      <point x="2507" y="582"/>
      <point x="2568" y="664" type="curve"/>
    </contour>
  </outline>
</glyph>
<glyph name="G" format="1">
  <advance width="3411"/>
  <unicode hex="0047"/>
  <outline>
    <contour>
      <point x="2163" y="1151" type="line"/>
      <point x="3080" y="1151" type="line"/>
      <point x="2957" y="676" type="line"/>
      <point x="2773" y="418"/>
      <point x="2122" y="-41"/>
      <point x="1454" y="-41" type="curve" smooth="yes"/>
      <point x="745" y="-41"/>
      <point x="205" y="294"/>
      <point x="205" y="1044" type="curve" smooth="yes"/>
      <point x="205" y="2244"/>
      <point x="1196" y="3113"/>
      <point x="2191" y="3113" type="curve" smooth="yes"/>
      <point x="2756" y="3113"/>
      <point x="3101" y="2695"/>
      <point x="3191" y="2109" type="curve"/>
      <point x="3133" y="2109" type="line"/>
      <point x="3031" y="2670"/>
      <point x="2715" y="3015"/>
      <point x="2355" y="3015" type="curve" smooth="yes"/>
      <point x="1560" y="3015"/>
      <point x="1106" y="1626"/>
      <point x="1106" y="799" type="curve" smooth="yes"/>
      <point x="1106" y="381"/>
      <point x="1184" y="41"/>
      <point x="1487" y="41" type="curve" smooth="yes"/>
      <point x="1708" y="41"/>
      <point x="1852" y="258"/>
      <point x="1995" y="512" type="curve"/>
    </contour>
    <contour>
      <point x="1720" y="1196" type="line"/>
      <point x="3236" y="1196" type="line"/>
      <point x="3236" y="1139" type="line"/>
      <point x="1720" y="1139" type="line"/>
    </contour>
    <contour>
      <point x="3371" y="3072" type="line"/>
      <point x="3412" y="3072" type="line"/>
      <point x="3191" y="2109" type="line"/>
      <point x="3138" y="2109" type="line"/>
      <point x="3097" y="2372" type="line"/>
      <point x="3085" y="2433"/>
      <point x="2891" y="2777"/>
      <point x="2834" y="2830" type="curve"/>
    </contour>
  </outline>
</glyph>
<glyph name="H" format="1">
  <advance width="3420"/>
  <unicode hex="0048"/>
  <outline>
    <contour>
      <point x="1577" y="57" type="line"/>
      <point x="3133" y="57" type="line"/>
      <point x="3133" y="0" type="line"/>
      <point x="1577" y="0" type="line"/>
    </contour>
    <contour>
      <point x="2253" y="3072" type="line"/>
      <point x="3809" y="3072" type="line"/>
      <point x="3809" y="3015" type="line"/>
      <point x="2253" y="3015" type="line"/>
    </contour>
    <contour>
      <point x="2580" y="3072" type="line"/>
      <point x="3461" y="3072" type="line"/>
      <point x="2765" y="0" type="line"/>
      <point x="1884" y="0" type="line"/>
    </contour>
    <contour>
      <point x="-184" y="57" type="line"/>
      <point x="1372" y="57" type="line"/>
      <point x="1372" y="0" type="line"/>
      <point x="-184" y="0" type="line"/>
    </contour>
    <contour>
      <point x="492" y="3072" type="line"/>
      <point x="2048" y="3072" type="line"/>
      <point x="2048" y="3015" type="line"/>
      <point x="492" y="3015" type="line"/>
    </contour>
    <contour>
      <point x="860" y="3072" type="line"/>
      <point x="1741" y="3072" type="line"/>
      <point x="1044" y="0" type="line"/>
      <point x="164" y="0" type="line"/>
    </contour>
    <contour>
      <point x="872" y="1544" type="line"/>
      <point x="2347" y="1544" type="line"/>
      <point x="2347" y="1487" type="line"/>
      <point x="872" y="1487" type="line"/>
    </contour>
  </outline>
</glyph>
<glyph name="M" format="1">
  <advance width="3891"/>
  <unicode hex="004D"/>
  <outline>
    <contour>
      <point x="2109" y="57" type="line"/>
      <point x="3604" y="57" type="line"/>
      <point x="3604" y="0" type="line"/>
      <point x="2109" y="0" type="line"/>
    </contour>
    <contour>
      <point x="3920" y="3015" type="line"/>
      <point x="3277" y="0" type="line"/>
      <point x="2396" y="0" type="line"/>
      <point x="3052" y="3072" type="line"/>
      <point x="4178" y="3072" type="line"/>
      <point x="4178" y="3015" type="line"/>
    </contour>
    <contour>
      <point x="1999" y="1221" type="line"/>
      <point x="3019" y="3072" type="line"/>
      <point x="3088" y="3072" type="line"/>
      <point x="1368" y="-41" type="line"/>
      <point x="1294" y="-41" type="line"/>
      <point x="811" y="3072" type="line"/>
      <point x="1696" y="3072" type="line"/>
    </contour>
    <contour>
      <point x="791" y="3015" type="line"/>
      <point x="492" y="3015" type="line"/>
      <point x="492" y="3072" type="line"/>
      <point x="864" y="3072" type="line"/>
      <point x="205" y="0" type="line"/>
      <point x="143" y="0" type="line"/>
    </contour>
    <contour>
      <point x="-123" y="57" type="line"/>
      <point x="541" y="57" type="line"/>
      <point x="541" y="0" type="line"/>
      <point x="-123" y="0" type="line"/>
    </contour>
  </outline>
</glyph>
<glyph name="T" format="1">
  <advance width="2957"/>
  <unicode hex="0054"/>
  <outline>
    <contour>
      <point x="381" y="57" type="line"/>
      <point x="2163" y="57" type="line"/>
      <point x="2163" y="0" type="line"/>
      <point x="381" y="0" type="line"/>
    </contour>
    <contour>
      <point x="1503" y="3072" type="line"/>
      <point x="2384" y="3072" type="line"/>
      <point x="1671" y="0" type="line"/>
      <point x="791" y="0" type="line"/>
    </contour>
    <contour>
      <point x="2486" y="3015" type="curve" smooth="yes"/>
      <point x="1360" y="3015" type="line" smooth="yes"/>
      <point x="963" y="3015"/>
      <point x="586" y="2544"/>
      <point x="344" y="2028" type="curve"/>
      <point x="287" y="2028" type="line"/>
      <point x="520" y="3072" type="line"/>
      <point x="3367" y="3072" type="line"/>
      <point x="3133" y="2028" type="line"/>
      <point x="3076" y="2028" type="line"/>
      <point x="3072" y="2548"/>
      <point x="2883" y="3015"/>
    </contour>
  </outline>
</glyph>
<glyph name="W" format="1">
  <advance width="5029"/>
  <unicode hex="0057"/>
  <outline>
    <contour>
      <point x="2195" y="827" type="line"/>
      <point x="2879" y="1954" type="line"/>
      <point x="2945" y="1954" type="line"/>
      <point x="1745" y="-41" type="line"/>
      <point x="1343" y="-41" type="line"/>
      <point x="766" y="3072" type="line"/>
      <point x="1798" y="3072" type="line"/>
    </contour>
    <contour>
      <point x="3228" y="1708" type="line"/>
      <point x="3162" y="1708" type="line"/>
      <point x="4002" y="3072" type="line"/>
      <point x="4067" y="3072" type="line"/>
    </contour>
    <contour>
      <point x="5439" y="3015" type="line"/>
      <point x="4620" y="3015" type="line"/>
      <point x="4620" y="3072" type="line"/>
      <point x="5439" y="3072" type="line"/>
    </contour>
    <contour>
      <point x="4465" y="3015" type="line"/>
      <point x="471" y="3015" type="line"/>
      <point x="471" y="3072" type="line"/>
      <point x="4465" y="3072" type="line"/>
    </contour>
    <contour>
      <point x="3641" y="823" type="line"/>
      <point x="5034" y="3072" type="line"/>
      <point x="5100" y="3072" type="line"/>
      <point x="3183" y="-41" type="line"/>
      <point x="2904" y="-41" type="line"/>
      <point x="2327" y="3072" type="line"/>
      <point x="3228" y="3072" type="line"/>
    </contour>
  </outline>
</glyph>
<glyph name="Y" format="1">
  <advance width="3194"/>
  <unicode hex="0059"/>
  <outline>
    <contour>
      <point x="3604" y="3015" type="line"/>
      <point x="2744" y="3015" type="line"/>
      <point x="2744" y="3072" type="line"/>
      <point x="3604" y="3072" type="line"/>
    </contour>
    <contour>
      <point x="2163" y="3015" type="line"/>
      <point x="471" y="3015" type="line"/>
      <point x="471" y="3072" type="line"/>
      <point x="2163" y="3072" type="line"/>
    </contour>
    <contour>
      <point x="573" y="57" type="line"/>
      <point x="2232" y="57" type="line"/>
      <point x="2232" y="0" type="line"/>
      <point x="573" y="0" type="line"/>
    </contour>
    <contour>
      <point x="2183" y="1683" type="line"/>
      <point x="3211" y="3064" type="line"/>
      <point x="3293" y="3064" type="line"/>
      <point x="2167" y="1565" type="line"/>
      <point x="1823" y="0" type="line"/>
      <point x="942" y="0" type="line"/>
      <point x="1290" y="1544" type="line"/>
      <point x="758" y="3072" type="line"/>
      <point x="1753" y="3072" type="line"/>
    </contour>
  </outline>
</glyph>
<glyph name="Z" format="1">
  <advance width="2719"/>
  <unicode hex="005A"/>
  <outline>
    <contour>
      <point x="1901" y="3015" type="line"/>
      <point x="1511" y="3015" type="line" smooth="yes"/>
      <point x="950" y="3015"/>
      <point x="680" y="2691"/>
      <point x="414" y="2253" type="curve"/>
      <point x="356" y="2253" type="line"/>
      <point x="549" y="3072" type="line"/>
      <point x="2986" y="3072" type="line"/>
      <point x="2986" y="3015" type="line"/>
      <point x="860" y="57" type="line"/>
      <point x="1372" y="57" type="line" smooth="yes"/>
      <point x="1933" y="57"/>
      <point x="2162" y="385"/>
      <point x="2486" y="901" type="curve"/>
      <point x="2544" y="901" type="line"/>
      <point x="2335" y="0" type="line"/>
      <point x="-225" y="0" type="line"/>
      <point x="-225" y="57" type="line"/>
    </contour>
  </outline>
</glyph>
<glyph name="bracketleft" format="1">
  <advance width="1658"/>
  <unicode hex="005B"/>
  <outline>
    <contour>
      <point x="819" y="3195" type="line"/>
      <point x="2089" y="3195" type="line"/>
      <point x="2089" y="3138" type="line"/>
      <point x="1581" y="3138" type="line"/>
      <point x="754" y="-557" type="line"/>
      <point x="1229" y="-557" type="line"/>
      <point x="1229" y="-614" type="line"/>
      <point x="-41" y="-614" type="line"/>
    </contour>
  </outline>
</glyph>
<glyph name="b" format="1">
  <advance width="2719"/>
  <unicode hex="0062"/>
  <outline>
    <contour>
      <point x="856" y="3015" type="line"/>
      <point x="549" y="3015" type="line"/>
      <point x="549" y="3072" type="line"/>
      <point x="1647" y="3072" type="line"/>
      <point x="1024" y="369" type="line"/>
      <point x="1024" y="189"/>
      <point x="1069" y="33"/>
      <point x="1155" y="33" type="curve" smooth="yes"/>
      <point x="1376" y="33"/>
      <point x="1749" y="840"/>
      <point x="1749" y="1389" type="curve" smooth="yes"/>
      <point x="1749" y="1528"/>
      <point x="1692" y="1667"/>
      <point x="1606" y="1667" type="curve" smooth="yes"/>
      <point x="1479" y="1667"/>
      <point x="1266" y="1409"/>
      <point x="1155" y="942" type="curve"/>
      <point x="1126" y="942" type="line"/>
      <point x="1282" y="1647"/>
      <point x="1610" y="1921"/>
      <point x="1942" y="1921" type="curve" smooth="yes"/>
      <point x="2216" y="1921"/>
      <point x="2585" y="1794"/>
      <point x="2585" y="1270" type="curve" smooth="yes"/>
      <point x="2585" y="410"/>
      <point x="1876" y="-41"/>
      <point x="1143" y="-41" type="curve" smooth="yes"/>
      <point x="893" y="-41"/>
      <point x="566" y="70"/>
      <point x="279" y="492" type="curve"/>
    </contour>
  </outline>
</glyph>
<glyph name="c" format="1">
  <advance width="2170"/>
  <unicode hex="0063"/>
  <outline>
    <contour>
      <point x="1921" y="1663" type="curve"/>
      <point x="1831" y="1782"/>
      <point x="1687" y="1855"/>
      <point x="1540" y="1855" type="curve" smooth="yes"/>
      <point x="1134" y="1855"/>
      <point x="909" y="1040"/>
      <point x="909" y="532" type="curve" smooth="yes"/>
      <point x="909" y="188"/>
      <point x="996" y="111"/>
      <point x="1135" y="111" type="curve" smooth="yes"/>
      <point x="1295" y="111"/>
      <point x="1512" y="230"/>
      <point x="1778" y="586" type="curve"/>
      <point x="1831" y="586" type="line"/>
      <point x="1561" y="189"/>
      <point x="1262" y="-41"/>
      <point x="807" y="-41" type="curve" smooth="yes"/>
      <point x="434" y="-41"/>
      <point x="74" y="122"/>
      <point x="74" y="614" type="curve" smooth="yes"/>
      <point x="74" y="1392"/>
      <point x="717" y="1925"/>
      <point x="1417" y="1925" type="curve" smooth="yes"/>
      <point x="1794" y="1925"/>
      <point x="2118" y="1712"/>
      <point x="2118" y="1376" type="curve" smooth="yes"/>
      <point x="2118" y="1126"/>
      <point x="1946" y="938"/>
      <point x="1700" y="938" type="curve" smooth="yes"/>
      <point x="1475" y="938"/>
      <point x="1262" y="1085"/>
      <point x="1262" y="1331" type="curve" smooth="yes"/>
      <point x="1262" y="1597"/>
      <point x="1507" y="1745"/>
      <point x="1667" y="1745" type="curve" smooth="yes"/>
      <point x="1798" y="1745"/>
      <point x="1888" y="1704"/>
    </contour>
  </outline>
</glyph>
<glyph name="g" format="1">
  <advance width="2932"/>
  <unicode hex="0067"/>
  <outline>
    <contour>
      <point x="655" y="-164" type="line"/>
      <point x="553" y="-209"/>
      <point x="434" y="-344"/>
      <point x="434" y="-557" type="curve" smooth="yes"/>
      <point x="434" y="-860"/>
      <point x="656" y="-1008"/>
      <point x="1049" y="-1008" type="curve" smooth="yes"/>
      <point x="1373" y="-1008"/>
      <point x="1892" y="-913"/>
      <point x="1892" y="-520" type="curve" smooth="yes"/>
      <point x="1892" y="-299"/>
      <point x="1741" y="-242"/>
      <point x="1516" y="-242" type="curve" smooth="yes"/>
      <point x="1430" y="-242"/>
      <point x="917" y="-242"/>
      <point x="827" y="-242" type="curve" smooth="yes"/>
      <point x="458" y="-242"/>
      <point x="160" y="-53"/>
      <point x="160" y="201" type="curve" smooth="yes"/>
      <point x="160" y="598"/>
      <point x="721" y="705"/>
      <point x="1151" y="705" type="curve"/>
      <point x="1143" y="676" type="line"/>
      <point x="1008" y="676"/>
      <point x="647" y="631"/>
      <point x="647" y="504" type="curve" smooth="yes"/>
      <point x="647" y="434"/>
      <point x="791" y="406"/>
      <point x="1016" y="406" type="curve" smooth="yes"/>
      <point x="1159" y="406"/>
      <point x="1478" y="410"/>
      <point x="1593" y="410" type="curve" smooth="yes"/>
      <point x="2023" y="410"/>
      <point x="2224" y="180"/>
      <point x="2224" y="-172" type="curve" smooth="yes"/>
      <point x="2224" y="-831"/>
      <point x="1540" y="-1065"/>
      <point x="1008" y="-1065" type="curve" smooth="yes"/>
      <point x="504" y="-1065"/>
      <point x="-172" y="-955"/>
      <point x="-172" y="-582" type="curve" smooth="yes"/>
      <point x="-172" y="-209"/>
      <point x="430" y="-164"/>
      <point x="614" y="-164" type="curve" smooth="yes"/>
    </contour>
    <contour>
      <point x="3002" y="1524" type="curve" smooth="yes"/>
      <point x="3002" y="1258"/>
      <point x="2834" y="1163"/>
      <point x="2691" y="1163" type="curve" smooth="yes"/>
      <point x="2548" y="1163"/>
      <point x="2384" y="1253"/>
      <point x="2384" y="1470" type="curve" smooth="yes"/>
      <point x="2384" y="1626"/>
      <point x="2503" y="1765"/>
      <point x="2679" y="1765" type="curve" smooth="yes"/>
      <point x="2777" y="1765"/>
      <point x="2892" y="1704"/>
      <point x="2908" y="1655" type="curve"/>
      <point x="2875" y="1786"/>
      <point x="2748" y="1847"/>
      <point x="2617" y="1847" type="curve" smooth="yes"/>
      <point x="2412" y="1847"/>
      <point x="2220" y="1749"/>
      <point x="2011" y="1389" type="curve"/>
      <point x="1962" y="1421" type="line"/>
      <point x="2167" y="1794"/>
      <point x="2412" y="1905"/>
      <point x="2617" y="1905" type="curve" smooth="yes"/>
      <point x="2891" y="1905"/>
      <point x="3002" y="1708"/>
    </contour>
    <contour>
      <point x="1188" y="713" type="curve" smooth="yes"/>
      <point x="1307" y="713"/>
      <point x="1511" y="1274"/>
      <point x="1511" y="1659" type="curve" smooth="yes"/>
      <point x="1511" y="1757"/>
      <point x="1512" y="1868"/>
      <point x="1434" y="1868" type="curve" smooth="yes"/>
      <point x="1315" y="1868"/>
      <point x="1110" y="1307"/>
      <point x="1110" y="922" type="curve" smooth="yes"/>
      <point x="1110" y="824"/>
      <point x="1110" y="713"/>
    </contour>
    <contour>
      <point x="1167" y="655" type="curve" smooth="yes"/>
      <point x="712" y="655"/>
      <point x="356" y="798"/>
      <point x="356" y="1167" type="curve" smooth="yes"/>
      <point x="356" y="1618"/>
      <point x="876" y="1925"/>
      <point x="1454" y="1925" type="curve" smooth="yes"/>
      <point x="1909" y="1925"/>
      <point x="2265" y="1782"/>
      <point x="2265" y="1413" type="curve" smooth="yes"/>
      <point x="2265" y="962"/>
      <point x="1745" y="655"/>
    </contour>
  </outline>
</glyph>
<glyph name="j" format="1">
  <advance width="1404"/>
  <unicode hex="006A"/>
  <outline>
    <contour>
      <point x="594" y="2662" type="curve" smooth="yes"/>
      <point x="594" y="2920"/>
      <point x="786" y="3113"/>
      <point x="1044" y="3113" type="curve" smooth="yes"/>
      <point x="1302" y="3113"/>
      <point x="1495" y="2920"/>
      <point x="1495" y="2662" type="curve" smooth="yes"/>
      <point x="1495" y="2404"/>
      <point x="1302" y="2212"/>
      <point x="1044" y="2212" type="curve" smooth="yes"/>
      <point x="786" y="2212"/>
      <point x="594" y="2404"/>
    </contour>
    <contour>
      <point x="-680" y="-836" type="curve"/>
      <point x="-619" y="-918"/>
      <point x="-450" y="-995"/>
      <point x="-262" y="-995" type="curve" smooth="yes"/>
      <point x="148" y="-995"/>
      <point x="82" y="-410"/>
      <point x="197" y="82" type="curve" smooth="yes"/>
      <point x="606" y="1827" type="line"/>
      <point x="229" y="1827" type="line"/>
      <point x="229" y="1884" type="line"/>
      <point x="1397" y="1884" type="line"/>
      <point x="995" y="-49" type="line" smooth="yes"/>
      <point x="889" y="-561"/>
      <point x="290" y="-1065"/>
      <point x="-242" y="-1065" type="curve" smooth="yes"/>
      <point x="-615" y="-1065"/>
      <point x="-950" y="-831"/>
      <point x="-950" y="-557" type="curve" smooth="yes"/>
      <point x="-950" y="-307"/>
      <point x="-738" y="-119"/>
      <point x="-492" y="-119" type="curve" smooth="yes"/>
      <point x="-267" y="-119"/>
      <point x="-78" y="-286"/>
      <point x="-78" y="-479" type="curve" smooth="yes"/>
      <point x="-78" y="-712"/>
      <point x="-274" y="-901"/>
      <point x="-512" y="-901" type="curve" smooth="yes"/>
      <point x="-582" y="-901"/>
      <point x="-639" y="-873"/>
    </contour>
  </outline>
</glyph>
<glyph name="p" format="1">
  <advance width="2686"/>
  <unicode hex="0070"/>
  <outline>
    <contour>
      <point x="1094" y="594" type="curve" smooth="yes"/>
      <point x="1094" y="377"/>
      <point x="1147" y="209"/>
      <point x="1249" y="209" type="curve" smooth="yes"/>
      <point x="1429" y="209"/>
      <point x="1737" y="856"/>
      <point x="1737" y="1405" type="curve" smooth="yes"/>
      <point x="1737" y="1561"/>
      <point x="1679" y="1667"/>
      <point x="1593" y="1667" type="curve" smooth="yes"/>
      <point x="1364" y="1667"/>
      <point x="1094" y="1020"/>
    </contour>
    <contour>
      <point x="1049" y="594" type="curve" smooth="yes"/>
      <point x="1049" y="1036"/>
      <point x="1343" y="1921"/>
      <point x="1921" y="1921" type="curve" smooth="yes"/>
      <point x="2204" y="1921"/>
      <point x="2572" y="1757"/>
      <point x="2572" y="1225" type="curve" smooth="yes"/>
      <point x="2572" y="406"/>
      <point x="1933" y="-41"/>
      <point x="1511" y="-41" type="curve" smooth="yes"/>
      <point x="1200" y="-41"/>
      <point x="1049" y="217"/>
    </contour>
    <contour>
      <point x="-377" y="-967" type="line"/>
      <point x="954" y="-967" type="line"/>
      <point x="954" y="-1024" type="line"/>
      <point x="-377" y="-1024" type="line"/>
    </contour>
    <contour>
      <point x="549" y="1827" type="line"/>
      <point x="266" y="1827" type="line"/>
      <point x="266" y="1884" type="line"/>
      <point x="1339" y="1884" type="line"/>
      <point x="1171" y="1167" type="line"/>
      <point x="1090" y="893" type="line"/>
      <point x="1065" y="680" type="line"/>
      <point x="668" y="-1024" type="line"/>
      <point x="-111" y="-1024" type="line"/>
    </contour>
  </outline>
</glyph>
<glyph name="q" format="1">
  <advance width="2584"/>
  <unicode hex="0071"/>
  <outline>
    <contour>
      <point x="2036" y="-967" type="line"/>
      <point x="2036" y="-1024" type="line"/>
      <point x="786" y="-1024" type="line"/>
      <point x="786" y="-967" type="line"/>
    </contour>
    <contour>
      <point x="1749" y="-1024" type="line"/>
      <point x="1053" y="-1024" type="line"/>
      <point x="1458" y="700" type="line"/>
      <point x="1470" y="737"/>
      <point x="1549" y="1000"/>
      <point x="1561" y="1049" type="curve"/>
      <point x="1585" y="1290" type="line"/>
      <point x="1716" y="1843" type="line"/>
      <point x="2429" y="1925" type="line"/>
    </contour>
    <contour>
      <point x="1552" y="1286" type="curve" smooth="yes"/>
      <point x="1552" y="1503"/>
      <point x="1499" y="1671"/>
      <point x="1397" y="1671" type="curve" smooth="yes"/>
      <point x="1217" y="1671"/>
      <point x="909" y="1024"/>
      <point x="909" y="475" type="curve" smooth="yes"/>
      <point x="909" y="319"/>
      <point x="967" y="213"/>
      <point x="1053" y="213" type="curve" smooth="yes"/>
      <point x="1282" y="213"/>
      <point x="1552" y="860"/>
    </contour>
    <contour>
      <point x="1597" y="1286" type="curve" smooth="yes"/>
      <point x="1597" y="844"/>
      <point x="1303" y="-41"/>
      <point x="725" y="-41" type="curve" smooth="yes"/>
      <point x="442" y="-41"/>
      <point x="74" y="123"/>
      <point x="74" y="655" type="curve" smooth="yes"/>
      <point x="74" y="1474"/>
      <point x="717" y="1925"/>
      <point x="1139" y="1925" type="curve" smooth="yes"/>
      <point x="1450" y="1925"/>
      <point x="1597" y="1663"/>
    </contour>
  </outline>
</glyph>
<glyph name="r" format="1">
  <advance width="2306"/>
  <unicode hex="0072"/>
  <outline>
    <contour>
      <point x="2396" y="1389" type="curve" smooth="yes"/>
      <point x="2396" y="1147"/>
      <point x="2233" y="934"/>
      <point x="1954" y="934" type="curve" smooth="yes"/>
      <point x="1696" y="934"/>
      <point x="1507" y="1110"/>
      <point x="1507" y="1364" type="curve" smooth="yes"/>
      <point x="1507" y="1589"/>
      <point x="1687" y="1798"/>
      <point x="1970" y="1798" type="curve" smooth="yes"/>
      <point x="2056" y="1798"/>
      <point x="2109" y="1753"/>
      <point x="2138" y="1712" type="curve"/>
      <point x="2081" y="1814"/>
      <point x="1937" y="1860"/>
      <point x="1831" y="1860" type="curve" smooth="yes"/>
      <point x="1397" y="1860"/>
      <point x="1151" y="1110"/>
      <point x="1053" y="709" type="curve"/>
      <point x="1012" y="709" type="line"/>
      <point x="1110" y="1164"/>
      <point x="1314" y="1925"/>
      <point x="1855" y="1925" type="curve" smooth="yes"/>
      <point x="2125" y="1925"/>
      <point x="2396" y="1713"/>
    </contour>
    <contour>
      <point x="553" y="1827" type="line"/>
      <point x="258" y="1827" type="line"/>
      <point x="258" y="1884" type="line"/>
      <point x="1323" y="1884" type="line"/>
      <point x="893" y="0" type="line"/>
      <point x="115" y="0" type="line"/>
    </contour>
  </outline>
</glyph>
<glyph name="s" format="1">
  <advance width="2121"/>
  <unicode hex="0073"/>
  <outline>
    <contour>
      <point x="1724" y="1692" type="curve"/>
      <point x="1667" y="1770"/>
      <point x="1495" y="1864"/>
      <point x="1176" y="1864" type="curve" smooth="yes"/>
      <point x="893" y="1864"/>
      <point x="819" y="1744"/>
      <point x="819" y="1638" type="curve" smooth="yes"/>
      <point x="819" y="1294"/>
      <point x="1782" y="1209"/>
      <point x="1782" y="664" type="curve" smooth="yes"/>
      <point x="1782" y="279"/>
      <point x="1372" y="-49"/>
      <point x="852" y="-49" type="curve" smooth="yes"/>
      <point x="201" y="-49"/>
      <point x="-8" y="246"/>
      <point x="-8" y="471" type="curve" smooth="yes"/>
      <point x="-8" y="680"/>
      <point x="155" y="807"/>
      <point x="319" y="807" type="curve" smooth="yes"/>
      <point x="462" y="807"/>
      <point x="643" y="701"/>
      <point x="643" y="496" type="curve" smooth="yes"/>
      <point x="643" y="312"/>
      <point x="488" y="188"/>
      <point x="328" y="188" type="curve" smooth="yes"/>
      <point x="226" y="188"/>
      <point x="155" y="237"/>
      <point x="139" y="270" type="curve"/>
      <point x="221" y="147"/>
      <point x="389" y="8"/>
      <point x="852" y="8" type="curve" smooth="yes"/>
      <point x="1139" y="8"/>
      <point x="1319" y="119"/>
      <point x="1319" y="262" type="curve" smooth="yes"/>
      <point x="1319" y="553"/>
      <point x="303" y="659"/>
      <point x="303" y="1257" type="curve" smooth="yes"/>
      <point x="303" y="1663"/>
      <point x="754" y="1921"/>
      <point x="1151" y="1921" type="curve" smooth="yes"/>
      <point x="1688" y="1921"/>
      <point x="1925" y="1708"/>
      <point x="1925" y="1475" type="curve" smooth="yes"/>
      <point x="1925" y="1307"/>
      <point x="1802" y="1180"/>
      <point x="1638" y="1180" type="curve" smooth="yes"/>
      <point x="1495" y="1180"/>
      <point x="1323" y="1286"/>
      <point x="1323" y="1470" type="curve" smooth="yes"/>
      <point x="1323" y="1634"/>
      <point x="1433" y="1757"/>
      <point x="1585" y="1757" type="curve" smooth="yes"/>
      <point x="1655" y="1757"/>
      <point x="1691" y="1737"/>
    </contour>
  </outline>
</glyph>
<glyph name="v" format="1">
  <advance width="2793"/>
  <unicode hex="0076"/>
  <outline>
    <contour>
      <point x="1323" y="582" type="line" smooth="yes"/>
      <point x="1270" y="258"/>
      <point x="1221" y="70"/>
      <point x="1450" y="70" type="curve" smooth="yes"/>
      <point x="1872" y="70"/>
      <point x="2666" y="692"/>
      <point x="2666" y="1409" type="curve" smooth="yes"/>
      <point x="2666" y="1417"/>
      <point x="2666" y="1422"/>
      <point x="2666" y="1434" type="curve"/>
      <point x="2654" y="1258"/>
      <point x="2416" y="1044"/>
      <point x="2183" y="1044" type="curve" smooth="yes"/>
      <point x="1921" y="1044"/>
      <point x="1741" y="1258"/>
      <point x="1741" y="1483" type="curve" smooth="yes"/>
      <point x="1741" y="1729"/>
      <point x="1942" y="1921"/>
      <point x="2216" y="1921" type="curve" smooth="yes"/>
      <point x="2515" y="1921"/>
      <point x="2720" y="1700"/>
      <point x="2720" y="1409" type="curve" smooth="yes"/>
      <point x="2720" y="664"/>
      <point x="1917" y="-41"/>
      <point x="1249" y="-41" type="curve" smooth="yes"/>
      <point x="729" y="-41"/>
      <point x="475" y="245"/>
      <point x="553" y="659" type="curve" smooth="yes"/>
      <point x="729" y="1602" type="line" smooth="yes"/>
      <point x="733" y="1627"/>
      <point x="737" y="1655"/>
      <point x="737" y="1675" type="curve" smooth="yes"/>
      <point x="737" y="1720"/>
      <point x="708" y="1753"/>
      <point x="651" y="1753" type="curve" smooth="yes"/>
      <point x="405" y="1753"/>
      <point x="230" y="1470"/>
      <point x="111" y="1200" type="curve"/>
      <point x="53" y="1217" type="line"/>
      <point x="250" y="1627"/>
      <point x="450" y="1925"/>
      <point x="987" y="1925" type="curve" smooth="yes"/>
      <point x="1343" y="1925"/>
      <point x="1462" y="1802"/>
      <point x="1462" y="1585" type="curve" smooth="yes"/>
      <point x="1462" y="1524"/>
      <point x="1462" y="1495"/>
      <point x="1450" y="1425" type="curve" smooth="yes"/>
    </contour>
  </outline>
</glyph>
<glyph name="w" format="1">
  <advance width="4116"/>
  <unicode hex="0077"/>
  <outline>
    <contour>
      <point x="1171" y="659" type="line" smooth="yes"/>
      <point x="1065" y="344"/>
      <point x="1078" y="90"/>
      <point x="1266" y="90" type="curve" smooth="yes"/>
      <point x="1540" y="90"/>
      <point x="1766" y="558"/>
      <point x="1913" y="1176" type="curve"/>
      <point x="1958" y="1176" type="line"/>
      <point x="1802" y="582"/>
      <point x="1668" y="-41"/>
      <point x="1004" y="-41" type="curve" smooth="yes"/>
      <point x="525" y="-41"/>
      <point x="246" y="177"/>
      <point x="381" y="578" type="curve" smooth="yes"/>
      <point x="729" y="1602" type="line" smooth="yes"/>
      <point x="737" y="1627"/>
      <point x="741" y="1655"/>
      <point x="741" y="1675" type="curve" smooth="yes"/>
      <point x="741" y="1720"/>
      <point x="712" y="1753"/>
      <point x="655" y="1753" type="curve" smooth="yes"/>
      <point x="417" y="1753"/>
      <point x="246" y="1499"/>
      <point x="111" y="1200" type="curve"/>
      <point x="53" y="1217" type="line"/>
      <point x="250" y="1627"/>
      <point x="450" y="1925"/>
      <point x="987" y="1925" type="curve" smooth="yes"/>
      <point x="1302" y="1925"/>
      <point x="1470" y="1823"/>
      <point x="1470" y="1565" type="curve" smooth="yes"/>
      <point x="1470" y="1504"/>
      <point x="1458" y="1454"/>
      <point x="1450" y="1425" type="curve" smooth="yes"/>
    </contour>
    <contour>
      <point x="2081" y="1884" type="line"/>
      <point x="2859" y="1884" type="line"/>
      <point x="2597" y="774" type="line" smooth="yes"/>
      <point x="2515" y="430"/>
      <point x="2531" y="74"/>
      <point x="2834" y="74" type="curve" smooth="yes"/>
      <point x="3436" y="74"/>
      <point x="3985" y="963"/>
      <point x="3985" y="1409" type="curve" smooth="yes"/>
      <point x="3985" y="1413"/>
      <point x="3985" y="1422"/>
      <point x="3985" y="1434" type="curve"/>
      <point x="3965" y="1233"/>
      <point x="3776" y="1044"/>
      <point x="3502" y="1044" type="curve" smooth="yes"/>
      <point x="3215" y="1044"/>
      <point x="3060" y="1258"/>
      <point x="3060" y="1483" type="curve" smooth="yes"/>
      <point x="3060" y="1729"/>
      <point x="3281" y="1921"/>
      <point x="3535" y="1921" type="curve" smooth="yes"/>
      <point x="3752" y="1921"/>
      <point x="4043" y="1782"/>
      <point x="4043" y="1409" type="curve" smooth="yes"/>
      <point x="4043" y="958"/>
      <point x="3511" y="-41"/>
      <point x="2671" y="-41" type="curve" smooth="yes"/>
      <point x="2265" y="-41"/>
      <point x="1745" y="98"/>
      <point x="1802" y="729" type="curve"/>
    </contour>
  </outline>
</glyph>
<glyph name="y" format="1">
  <advance width="2895"/>
  <unicode hex="0079"/>
  <outline>
    <contour>
      <point x="1479" y="-549" type="curve"/>
      <point x="1094" y="98"/>
      <point x="787" y="1347"/>
      <point x="676" y="1642" type="curve" smooth="yes"/>
      <point x="660" y="1687"/>
      <point x="619" y="1749"/>
      <point x="545" y="1749" type="curve" smooth="yes"/>
      <point x="439" y="1749"/>
      <point x="283" y="1630"/>
      <point x="201" y="1397" type="curve"/>
      <point x="147" y="1421" type="line"/>
      <point x="282" y="1790"/>
      <point x="602" y="1925"/>
      <point x="938" y="1925" type="curve" smooth="yes"/>
      <point x="1266" y="1925"/>
      <point x="1438" y="1778"/>
      <point x="1524" y="1499" type="curve" smooth="yes"/>
      <point x="1639" y="1130"/>
      <point x="1778" y="479"/>
      <point x="2052" y="78" type="curve"/>
      <point x="1991" y="-8"/>
      <point x="1549" y="-479"/>
    </contour>
    <contour>
      <point x="696" y="-1065" type="curve" smooth="yes"/>
      <point x="233" y="-1065"/>
      <point x="53" y="-721"/>
      <point x="53" y="-496" type="curve" smooth="yes"/>
      <point x="53" y="-238"/>
      <point x="233" y="-20"/>
      <point x="471" y="-20" type="curve" smooth="yes"/>
      <point x="696" y="-20"/>
      <point x="864" y="-168"/>
      <point x="864" y="-406" type="curve" smooth="yes"/>
      <point x="864" y="-623"/>
      <point x="712" y="-791"/>
      <point x="487" y="-791" type="curve" smooth="yes"/>
      <point x="299" y="-791"/>
      <point x="172" y="-676"/>
      <point x="123" y="-537" type="curve"/>
      <point x="127" y="-684"/>
      <point x="266" y="-1008"/>
      <point x="688" y="-1008" type="curve" smooth="yes"/>
      <point x="1397" y="-1008"/>
      <point x="2757" y="954"/>
      <point x="2757" y="1454" type="curve" smooth="yes"/>
      <point x="2757" y="1462"/>
      <point x="2757" y="1467"/>
      <point x="2757" y="1479" type="curve"/>
      <point x="2728" y="1291"/>
      <point x="2580" y="1130"/>
      <point x="2351" y="1130" type="curve" smooth="yes"/>
      <point x="2089" y="1130"/>
      <point x="1937" y="1344"/>
      <point x="1937" y="1528" type="curve" smooth="yes"/>
      <point x="1937" y="1733"/>
      <point x="2085" y="1925"/>
      <point x="2359" y="1925" type="curve" smooth="yes"/>
      <point x="2650" y="1925"/>
      <point x="2822" y="1708"/>
      <point x="2822" y="1458" type="curve" smooth="yes"/>
      <point x="2822" y="926"/>
      <point x="1441" y="-1065"/>
    </contour>
  </outline>
</glyph>
<glyph name="cedilla" format="1">
  <advance width="2252"/>
  <unicode hex="00B8"/>
  <outline>
    <contour>
      <point x="971" y="-324" type="line"/>
      <point x="1462" y="168" type="line"/>
      <point x="1540" y="168" type="line"/>
      <point x="1049" y="-324" type="line"/>
    </contour>
    <contour>
      <point x="971" y="-324" type="curve"/>
      <point x="1163" y="-160" type="line"/>
      <point x="1511" y="-160"/>
      <point x="1860" y="-205"/>
      <point x="1860" y="-451" type="curve" smooth="yes"/>
      <point x="1860" y="-779"/>
      <point x="1360" y="-901"/>
      <point x="823" y="-901" type="curve"/>
      <point x="823" y="-844" type="line"/>
      <point x="1065" y="-844"/>
      <point x="1225" y="-729"/>
      <point x="1225" y="-532" type="curve" smooth="yes"/>
      <point x="1225" y="-397"/>
      <point x="1155" y="-324"/>
    </contour>
  </outline>
</glyph>
<glyph name="AE" format="1">
  <advance width="4341"/>
  <unicode hex="00C6"/>
  <outline>
    <contour>
      <point x="3068" y="3072" type="line"/>
      <point x="4727" y="3072" type="line"/>
      <point x="4530" y="2232" type="line"/>
      <point x="4473" y="2232" type="line"/>
      <point x="4453" y="2670"/>
      <point x="4202" y="3015"/>
      <point x="3723" y="3015" type="curve" smooth="yes"/>
      <point x="3068" y="3015" type="line"/>
    </contour>
    <contour>
      <point x="3187" y="1561" type="curve" smooth="yes"/>
      <point x="2937" y="1561" type="line"/>
      <point x="2937" y="1618" type="line"/>
      <point x="3187" y="1618" type="line" smooth="yes"/>
      <point x="3420" y="1618"/>
      <point x="3695" y="1868"/>
      <point x="3879" y="2142" type="curve"/>
      <point x="3936" y="2142" type="line"/>
      <point x="3674" y="1016" type="line"/>
      <point x="3617" y="1016" type="line"/>
      <point x="3556" y="1290"/>
      <point x="3420" y="1561"/>
    </contour>
    <contour>
      <point x="4055" y="0" type="line"/>
      <point x="1638" y="0" type="line"/>
      <point x="1638" y="57" type="line"/>
      <point x="3011" y="57" type="line" smooth="yes"/>
      <point x="3572" y="57"/>
      <point x="3969" y="402"/>
      <point x="4211" y="922" type="curve"/>
      <point x="4268" y="922" type="line"/>
    </contour>
    <contour>
      <point x="2699" y="3072" type="line"/>
      <point x="3580" y="3072" type="line"/>
      <point x="2867" y="0" type="line"/>
      <point x="1987" y="0" type="line"/>
    </contour>
    <contour>
      <point x="1061" y="1032" type="line"/>
      <point x="2273" y="1032" type="line"/>
      <point x="2273" y="975" type="line"/>
      <point x="1061" y="975" type="line"/>
    </contour>
    <contour>
      <point x="2658" y="3072" type="line"/>
      <point x="2728" y="3072" type="line"/>
      <point x="307" y="0" type="line"/>
      <point x="225" y="0" type="line"/>
    </contour>
    <contour>
      <point x="-102" y="57" type="line"/>
      <point x="799" y="57" type="line"/>
      <point x="799" y="0" type="line"/>
      <point x="-102" y="0" type="line"/>
    </contour>
  </outline>
</glyph>
<glyph name="eth" format="1">
  <advance width="2703"/>
  <unicode hex="00F0"/>
  <outline>
    <contour>
      <point x="1065" y="2580" type="line"/>
      <point x="2949" y="2580" type="line"/>
      <point x="2949" y="2523" type="line"/>
      <point x="1065" y="2523" type="line"/>
    </contour>
    <contour>
      <point x="2691" y="1556" type="curve" smooth="yes"/>
      <point x="2691" y="696"/>
      <point x="1912" y="-41"/>
      <point x="1171" y="-41" type="curve" smooth="yes"/>
      <point x="553" y="-41"/>
      <point x="164" y="246"/>
      <point x="164" y="778" type="curve" smooth="yes"/>
      <point x="164" y="1556"/>
      <point x="934" y="2007"/>
      <point x="1430" y="2007" type="curve" smooth="yes"/>
      <point x="1774" y="2007"/>
      <point x="1823" y="1872"/>
      <point x="1782" y="1393" type="curve"/>
      <point x="1737" y="1679" type="line"/>
      <point x="1737" y="1843"/>
      <point x="1672" y="1909"/>
      <point x="1602" y="1909" type="curve" smooth="yes"/>
      <point x="1278" y="1909"/>
      <point x="1012" y="795"/>
      <point x="1012" y="369" type="curve" smooth="yes"/>
      <point x="1012" y="107"/>
      <point x="1040" y="16"/>
      <point x="1159" y="16" type="curve" smooth="yes"/>
      <point x="1401" y="16"/>
      <point x="1737" y="1007"/>
      <point x="1737" y="1679" type="curve"/>
      <point x="1769" y="1573" type="line"/>
      <point x="1863" y="2458"/>
      <point x="1676" y="3064"/>
      <point x="1004" y="3064" type="curve"/>
      <point x="1004" y="3113" type="line"/>
      <point x="2122" y="3113"/>
      <point x="2691" y="2469"/>
    </contour>
  </outline>
</glyph>
<glyph name="kgreenlandic" format="1">
  <advance width="2772"/>
  <unicode hex="0138"/>
  <outline>
    <contour>
      <point x="2671" y="668" type="line"/>
      <point x="2515" y="258"/>
      <point x="2233" y="-41"/>
      <point x="1819" y="-41" type="curve" smooth="yes"/>
      <point x="1504" y="-41"/>
      <point x="1274" y="53"/>
      <point x="1274" y="340" type="curve" smooth="yes"/>
      <point x="1274" y="360"/>
      <point x="1278" y="405"/>
      <point x="1282" y="430" type="curve" smooth="yes"/>
      <point x="1311" y="573" type="line" smooth="yes"/>
      <point x="1360" y="811"/>
      <point x="1483" y="1085"/>
      <point x="1368" y="1085" type="curve" smooth="yes"/>
      <point x="1266" y="1085"/>
      <point x="1180" y="934"/>
      <point x="1143" y="778" type="curve"/>
      <point x="1102" y="778" type="line"/>
      <point x="1200" y="1114"/>
      <point x="1311" y="1204"/>
      <point x="1602" y="1204" type="curve" smooth="yes"/>
      <point x="1885" y="1204"/>
      <point x="2179" y="1028"/>
      <point x="2056" y="496" type="curve" smooth="yes"/>
      <point x="2003" y="201" type="line" smooth="yes"/>
      <point x="2003" y="193"/>
      <point x="1999" y="172"/>
      <point x="1999" y="164" type="curve" smooth="yes"/>
      <point x="1999" y="119"/>
      <point x="2028" y="98"/>
      <point x="2081" y="98" type="curve" smooth="yes"/>
      <point x="2274" y="98"/>
      <point x="2515" y="393"/>
      <point x="2617" y="684" type="curve"/>
    </contour>
    <contour>
      <point x="1135" y="1319" type="curve"/>
      <point x="1200" y="1282" type="line"/>
      <point x="1208" y="1130"/>
      <point x="1204" y="1044"/>
      <point x="1315" y="1044" type="curve" smooth="yes"/>
      <point x="1462" y="1044"/>
      <point x="1504" y="1221"/>
      <point x="1610" y="1483" type="curve" smooth="yes"/>
      <point x="1725" y="1762"/>
      <point x="1925" y="1925"/>
      <point x="2171" y="1925" type="curve" smooth="yes"/>
      <point x="2437" y="1925"/>
      <point x="2712" y="1725"/>
      <point x="2712" y="1430" type="curve" smooth="yes"/>
      <point x="2712" y="1205"/>
      <point x="2543" y="1020"/>
      <point x="2318" y="1020" type="curve" smooth="yes"/>
      <point x="2093" y="1020"/>
      <point x="1950" y="1213"/>
      <point x="1950" y="1389" type="curve" smooth="yes"/>
      <point x="1950" y="1586"/>
      <point x="2121" y="1745"/>
      <point x="2318" y="1745" type="curve" smooth="yes"/>
      <point x="2433" y="1745"/>
      <point x="2539" y="1687"/>
      <point x="2568" y="1630" type="curve"/>
      <point x="2523" y="1761"/>
      <point x="2355" y="1868"/>
      <point x="2167" y="1868" type="curve" smooth="yes"/>
      <point x="1974" y="1868"/>
      <point x="1778" y="1741"/>
      <point x="1667" y="1462" type="curve" smooth="yes"/>
      <point x="1556" y="1183"/>
      <point x="1516" y="991"/>
      <point x="1315" y="991" type="curve" smooth="yes"/>
      <point x="1176" y="991"/>
      <point x="1135" y="1106"/>
    </contour>
    <contour>
      <point x="606" y="1827" type="line"/>
      <point x="254" y="1827" type="line"/>
      <point x="254" y="1884" type="line"/>
      <point x="1401" y="1884" type="line"/>
      <point x="963" y="0" type="line"/>
      <point x="184" y="0" type="line"/>
    </contour>
  </outline>
</glyph>
<glyph name="lslash" format="1">
  <advance width="1679"/>
  <unicode hex="0142"/>
  <outline>
    <contour>
      <point x="115" y="1475" type="line"/>
      <point x="1774" y="2376" type="line"/>
      <point x="1774" y="2306" type="line"/>
      <point x="115" y="1405" type="line"/>
    </contour>
    <component base="l"/>
  </outline>
</glyph>
<glyph name="uni0213" format="1">
  <advance width="2306"/>
  <unicode hex="0213"/>
  <outline>
    <contour>
      <point x="1905" y="2212" type="line"/>
      <point x="1925" y="2364"/>
      <point x="1728" y="2433"/>
      <point x="1507" y="2433" type="curve" smooth="yes"/>
      <point x="1286" y="2433"/>
      <point x="1016" y="2413"/>
      <point x="950" y="2212" type="curve"/>
      <point x="893" y="2212" type="line"/>
      <point x="934" y="2462"/>
      <point x="1056" y="2986"/>
      <point x="1548" y="2986" type="curve" smooth="yes"/>
      <point x="1999" y="2986"/>
      <point x="1999" y="2462"/>
      <point x="1958" y="2212" type="curve"/>
    </contour>
    <component base="r"/>
  </outline>
</glyph>
<glyph name="ring" format="1">
  <advance width="1310"/>
  <unicode hex="02DA"/>
  <outline>
    <contour>
      <point x="676" y="2785" type="curve" smooth="yes"/>
      <point x="676" y="2994"/>
      <point x="856" y="3154"/>
      <point x="1147" y="3154" type="curve" smooth="yes"/>
      <point x="1438" y="3154"/>
      <point x="1618" y="2994"/>
      <point x="1618" y="2785" type="curve" smooth="yes"/>
      <point x="1618" y="2576"/>
      <point x="1438" y="2417"/>
      <point x="1147" y="2417" type="curve" smooth="yes"/>
      <point x="856" y="2417"/>
      <point x="676" y="2576"/>
    </contour>
    <contour>
      <point x="1016" y="2585" type="curve" smooth="yes"/>
      <point x="1016" y="2536"/>
      <point x="1015" y="2474"/>
      <point x="1085" y="2474" type="curve" smooth="yes"/>
      <point x="1196" y="2474"/>
      <point x="1278" y="2855"/>
      <point x="1278" y="2986" type="curve" smooth="yes"/>
      <point x="1278" y="3035"/>
      <point x="1278" y="3097"/>
      <point x="1208" y="3097" type="curve" smooth="yes"/>
      <point x="1097" y="3097"/>
      <point x="1016" y="2716"/>
    </contour>
  </outline>
</glyph>
<glyph name="pi" format="1">
  <advance width="2871"/>
  <unicode hex="03C0"/>
  <outline>
    <contour>
      <point x="508" y="-41" type="curve" smooth="yes"/>
      <point x="299" y="-41"/>
      <point x="143" y="95"/>
      <point x="143" y="279" type="curve" smooth="yes"/>
      <point x="143" y="844"/>
      <point x="803" y="381"/>
      <point x="1065" y="1225" type="curve" smooth="yes"/>
      <point x="1257" y="1843" type="line"/>
      <point x="1487" y="1843" type="line"/>
      <point x="1262" y="995" type="line" smooth="yes"/>
      <point x="1102" y="389"/>
      <point x="1073" y="-41"/>
    </contour>
    <contour>
      <point x="2646" y="422" type="line"/>
      <point x="2511" y="135"/>
      <point x="2298" y="-41"/>
      <point x="1917" y="-41" type="curve" smooth="yes"/>
      <point x="1520" y="-41"/>
      <point x="1331" y="262"/>
      <point x="1397" y="528" type="curve" smooth="yes"/>
      <point x="1704" y="1720" type="line"/>
      <point x="2564" y="1720" type="line"/>
      <point x="2216" y="438" type="line" smooth="yes"/>
      <point x="2175" y="286"/>
      <point x="2241" y="238"/>
      <point x="2339" y="238" type="curve" smooth="yes"/>
      <point x="2445" y="238"/>
      <point x="2527" y="303"/>
      <point x="2605" y="446" type="curve"/>
    </contour>
    <contour>
      <point x="2933" y="1884" type="line"/>
      <point x="2707" y="1106" type="line"/>
      <point x="307" y="1106" type="line"/>
      <point x="233" y="799" type="line"/>
      <point x="176" y="799" type="line"/>
      <point x="438" y="1884" type="line"/>
    </contour>
  </outline>
</glyph>
<glyph name="uniFB00" format="1">
  <advance width="3416"/>
  <unicode hex="FB00"/>
  <outline>
    <contour>
      <point x="352" y="1884" type="line"/>
      <point x="3424" y="1884" type="line"/>
      <point x="3424" y="1827" type="line"/>
      <point x="352" y="1827" type="line"/>
    </contour>
    <contour>
      <point x="3842" y="2871" type="curve"/>
      <point x="3789" y="2957"/>
      <point x="3613" y="3047"/>
      <point x="3441" y="3047" type="curve" smooth="yes"/>
      <point x="3154" y="3047"/>
      <point x="2978" y="2712"/>
      <point x="2892" y="2212" type="curve" smooth="yes"/>
      <point x="2535" y="156" type="line" smooth="yes"/>
      <point x="2396" y="-639"/>
      <point x="1847" y="-860"/>
      <point x="1315" y="-860" type="curve" smooth="yes"/>
      <point x="860" y="-860"/>
      <point x="590" y="-586"/>
      <point x="590" y="-332" type="curve" smooth="yes"/>
      <point x="590" y="-82"/>
      <point x="737" y="86"/>
      <point x="983" y="86" type="curve" smooth="yes"/>
      <point x="1208" y="86"/>
      <point x="1421" y="-53"/>
      <point x="1421" y="-299" type="curve" smooth="yes"/>
      <point x="1421" y="-545"/>
      <point x="1237" y="-705"/>
      <point x="1020" y="-705" type="curve" smooth="yes"/>
      <point x="930" y="-705"/>
      <point x="844" y="-663"/>
      <point x="819" y="-618" type="curve"/>
      <point x="872" y="-704"/>
      <point x="1049" y="-795"/>
      <point x="1221" y="-795" type="curve" smooth="yes"/>
      <point x="1508" y="-795"/>
      <point x="1683" y="-459"/>
      <point x="1769" y="41" type="curve" smooth="yes"/>
      <point x="2126" y="2097" type="line" smooth="yes"/>
      <point x="2265" y="2892"/>
      <point x="2814" y="3113"/>
      <point x="3346" y="3113" type="curve" smooth="yes"/>
      <point x="3801" y="3113"/>
      <point x="4071" y="2839"/>
      <point x="4071" y="2585" type="curve" smooth="yes"/>
      <point x="4071" y="2335"/>
      <point x="3924" y="2167"/>
      <point x="3678" y="2167" type="curve" smooth="yes"/>
      <point x="3453" y="2167"/>
      <point x="3240" y="2306"/>
      <point x="3240" y="2552" type="curve" smooth="yes"/>
      <point x="3240" y="2798"/>
      <point x="3424" y="2957"/>
      <point x="3641" y="2957" type="curve" smooth="yes"/>
      <point x="3727" y="2957"/>
      <point x="3801" y="2920"/>
    </contour>
    <contour>
      <point x="2413" y="2666" type="curve"/>
      <point x="2360" y="2752"/>
      <point x="2183" y="2843"/>
      <point x="2011" y="2843" type="curve" smooth="yes"/>
      <point x="1724" y="2843"/>
      <point x="1573" y="2638"/>
      <point x="1487" y="2138" type="curve" smooth="yes"/>
      <point x="1106" y="-49" type="line" smooth="yes"/>
      <point x="967" y="-844"/>
      <point x="417" y="-1065"/>
      <point x="-115" y="-1065" type="curve" smooth="yes"/>
      <point x="-570" y="-1065"/>
      <point x="-840" y="-791"/>
      <point x="-840" y="-537" type="curve" smooth="yes"/>
      <point x="-840" y="-287"/>
      <point x="-692" y="-119"/>
      <point x="-446" y="-119" type="curve" smooth="yes"/>
      <point x="-221" y="-119"/>
      <point x="-8" y="-258"/>
      <point x="-8" y="-504" type="curve" smooth="yes"/>
      <point x="-8" y="-750"/>
      <point x="-193" y="-909"/>
      <point x="-410" y="-909" type="curve" smooth="yes"/>
      <point x="-500" y="-909"/>
      <point x="-585" y="-868"/>
      <point x="-610" y="-823" type="curve"/>
      <point x="-557" y="-909"/>
      <point x="-381" y="-999"/>
      <point x="-209" y="-999" type="curve" smooth="yes"/>
      <point x="78" y="-999"/>
      <point x="254" y="-664"/>
      <point x="340" y="-164" type="curve" smooth="yes"/>
      <point x="696" y="1892" type="line" smooth="yes"/>
      <point x="835" y="2687"/>
      <point x="1385" y="2908"/>
      <point x="1917" y="2908" type="curve" smooth="yes"/>
      <point x="2372" y="2908"/>
      <point x="2642" y="2634"/>
      <point x="2642" y="2380" type="curve" smooth="yes"/>
      <point x="2642" y="2130"/>
      <point x="2495" y="1962"/>
      <point x="2249" y="1962" type="curve" smooth="yes"/>
      <point x="2024" y="1962"/>
      <point x="1810" y="2101"/>
      <point x="1810" y="2347" type="curve" smooth="yes"/>
      <point x="1810" y="2593"/>
      <point x="1995" y="2753"/>
      <point x="2212" y="2753" type="curve" smooth="yes"/>
      <point x="2298" y="2753"/>
      <point x="2372" y="2715"/>
    </contour>
  </outline>
</glyph>
<glyph name="uniFB01" format="1">
  <advance width="3211"/>
  <unicode hex="FB01"/>
  <outline>
    <contour>
      <point x="3129" y="668" type="line"/>
      <point x="2973" y="258"/>
      <point x="2650" y="-41"/>
      <point x="2195" y="-41" type="curve" smooth="yes"/>
      <point x="1880" y="-41"/>
      <point x="1720" y="53"/>
      <point x="1720" y="340" type="curve" smooth="yes"/>
      <point x="1720" y="360"/>
      <point x="1721" y="405"/>
      <point x="1729" y="430" type="curve" smooth="yes"/>
      <point x="2085" y="1827" type="line"/>
      <point x="352" y="1827" type="line"/>
      <point x="352" y="1884" type="line"/>
      <point x="2875" y="1884" type="line"/>
      <point x="2470" y="283" type="line" smooth="yes"/>
      <point x="2466" y="258"/>
      <point x="2462" y="229"/>
      <point x="2462" y="209" type="curve" smooth="yes"/>
      <point x="2462" y="164"/>
      <point x="2482" y="123"/>
      <point x="2535" y="123" type="curve" smooth="yes"/>
      <point x="2715" y="123"/>
      <point x="2965" y="377"/>
      <point x="3076" y="684" type="curve"/>
    </contour>
    <contour>
      <point x="2654" y="2871" type="curve"/>
      <point x="2593" y="2973"/>
      <point x="2413" y="3047"/>
      <point x="2212" y="3047" type="curve" smooth="yes"/>
      <point x="1868" y="3047"/>
      <point x="1589" y="2724"/>
      <point x="1499" y="2212" type="curve" smooth="yes"/>
      <point x="1106" y="-49" type="line" smooth="yes"/>
      <point x="967" y="-844"/>
      <point x="417" y="-1065"/>
      <point x="-115" y="-1065" type="curve" smooth="yes"/>
      <point x="-570" y="-1065"/>
      <point x="-840" y="-791"/>
      <point x="-840" y="-537" type="curve" smooth="yes"/>
      <point x="-840" y="-287"/>
      <point x="-692" y="-119"/>
      <point x="-446" y="-119" type="curve" smooth="yes"/>
      <point x="-221" y="-119"/>
      <point x="-8" y="-258"/>
      <point x="-8" y="-504" type="curve" smooth="yes"/>
      <point x="-8" y="-750"/>
      <point x="-193" y="-909"/>
      <point x="-410" y="-909" type="curve" smooth="yes"/>
      <point x="-500" y="-909"/>
      <point x="-585" y="-868"/>
      <point x="-610" y="-823" type="curve"/>
      <point x="-557" y="-909"/>
      <point x="-381" y="-999"/>
      <point x="-209" y="-999" type="curve" smooth="yes"/>
      <point x="78" y="-999"/>
      <point x="254" y="-664"/>
      <point x="340" y="-164" type="curve" smooth="yes"/>
      <point x="733" y="2097" type="line" smooth="yes"/>
      <point x="872" y="2892"/>
      <point x="1504" y="3113"/>
      <point x="2118" y="3113" type="curve" smooth="yes"/>
      <point x="2634" y="3113"/>
      <point x="2884" y="2855"/>
      <point x="2884" y="2585" type="curve" smooth="yes"/>
      <point x="2884" y="2335"/>
      <point x="2736" y="2167"/>
      <point x="2490" y="2167" type="curve" smooth="yes"/>
      <point x="2265" y="2167"/>
      <point x="2052" y="2306"/>
      <point x="2052" y="2552" type="curve" smooth="yes"/>
      <point x="2052" y="2798"/>
      <point x="2237" y="2957"/>
      <point x="2454" y="2957" type="curve" smooth="yes"/>
      <point x="2536" y="2957"/>
      <point x="2621" y="2920"/>
    </contour>
  </outline>
</glyph>
<glyph name="uniFB02" format="1">
  <advance width="3436"/>
  <unicode hex="FB02"/>
  <outline>
    <contour>
      <point x="3355" y="668" type="line"/>
      <point x="3199" y="258"/>
      <point x="2876" y="-41"/>
      <point x="2421" y="-41" type="curve" smooth="yes"/>
      <point x="2106" y="-41"/>
      <point x="1946" y="53"/>
      <point x="1946" y="340" type="curve" smooth="yes"/>
      <point x="1946" y="360"/>
      <point x="1950" y="405"/>
      <point x="1954" y="430" type="curve" smooth="yes"/>
      <point x="2540" y="2990" type="line"/>
      <point x="3355" y="3154" type="line"/>
      <point x="2695" y="283" type="line" smooth="yes"/>
      <point x="2691" y="258"/>
      <point x="2687" y="229"/>
      <point x="2687" y="209" type="curve" smooth="yes"/>
      <point x="2687" y="164"/>
      <point x="2708" y="123"/>
      <point x="2761" y="123" type="curve" smooth="yes"/>
      <point x="2937" y="123"/>
      <point x="3190" y="373"/>
      <point x="3301" y="684" type="curve"/>
    </contour>
    <contour>
      <point x="352" y="1884" type="line"/>
      <point x="2032" y="1884" type="line"/>
      <point x="2032" y="1827" type="line"/>
      <point x="352" y="1827" type="line"/>
    </contour>
    <contour>
      <point x="2802" y="2585" type="curve" smooth="yes"/>
      <point x="2802" y="2335"/>
      <point x="2654" y="2167"/>
      <point x="2408" y="2167" type="curve" smooth="yes"/>
      <point x="2183" y="2167"/>
      <point x="1970" y="2306"/>
      <point x="1970" y="2552" type="curve" smooth="yes"/>
      <point x="1970" y="2798"/>
      <point x="2155" y="2957"/>
      <point x="2372" y="2957" type="curve" smooth="yes"/>
      <point x="2454" y="2957"/>
      <point x="2539" y="2920"/>
      <point x="2572" y="2871" type="curve"/>
      <point x="2519" y="2957"/>
      <point x="2318" y="3047"/>
      <point x="2146" y="3047" type="curve" smooth="yes"/>
      <point x="1831" y="3047"/>
      <point x="1585" y="2712"/>
      <point x="1499" y="2212" type="curve" smooth="yes"/>
      <point x="1106" y="-49" type="line" smooth="yes"/>
      <point x="967" y="-844"/>
      <point x="417" y="-1065"/>
      <point x="-115" y="-1065" type="curve" smooth="yes"/>
      <point x="-570" y="-1065"/>
      <point x="-840" y="-791"/>
      <point x="-840" y="-537" type="curve" smooth="yes"/>
      <point x="-840" y="-287"/>
      <point x="-692" y="-119"/>
      <point x="-446" y="-119" type="curve" smooth="yes"/>
      <point x="-221" y="-119"/>
      <point x="-8" y="-258"/>
      <point x="-8" y="-504" type="curve" smooth="yes"/>
      <point x="-8" y="-750"/>
      <point x="-193" y="-909"/>
      <point x="-410" y="-909" type="curve" smooth="yes"/>
      <point x="-500" y="-909"/>
      <point x="-585" y="-868"/>
      <point x="-610" y="-823" type="curve"/>
      <point x="-557" y="-909"/>
      <point x="-381" y="-999"/>
      <point x="-209" y="-999" type="curve" smooth="yes"/>
      <point x="78" y="-999"/>
      <point x="254" y="-664"/>
      <point x="340" y="-164" type="curve" smooth="yes"/>
      <point x="733" y="2097" type="line" smooth="yes"/>
      <point x="876" y="2916"/>
      <point x="1487" y="3113"/>
      <point x="2077" y="3113" type="curve" smooth="yes"/>
      <point x="2487" y="3113"/>
      <point x="2802" y="2855"/>
    </contour>
  </outline>
</glyph>
<glyph name="uniFB03" format="1">
  <advance width="4603"/>
  <unicode hex="FB03"/>
  <outline>
    <contour>
      <point x="4522" y="668" type="line"/>
      <point x="4366" y="258"/>
      <point x="4043" y="-41"/>
      <point x="3588" y="-41" type="curve" smooth="yes"/>
      <point x="3273" y="-41"/>
      <point x="3113" y="53"/>
      <point x="3113" y="340" type="curve" smooth="yes"/>
      <point x="3113" y="360"/>
      <point x="3113" y="405"/>
      <point x="3121" y="430" type="curve" smooth="yes"/>
      <point x="3478" y="1827" type="line"/>
      <point x="352" y="1827" type="line"/>
      <point x="352" y="1884" type="line"/>
      <point x="4268" y="1884" type="line"/>
      <point x="3863" y="283" type="line" smooth="yes"/>
      <point x="3859" y="258"/>
      <point x="3854" y="229"/>
      <point x="3854" y="209" type="curve" smooth="yes"/>
      <point x="3854" y="164"/>
      <point x="3875" y="123"/>
      <point x="3928" y="123" type="curve" smooth="yes"/>
      <point x="4108" y="123"/>
      <point x="4358" y="377"/>
      <point x="4469" y="684" type="curve"/>
    </contour>
    <contour>
      <point x="4276" y="2585" type="curve" smooth="yes"/>
      <point x="4276" y="2335"/>
      <point x="4129" y="2167"/>
      <point x="3883" y="2167" type="curve" smooth="yes"/>
      <point x="3658" y="2167"/>
      <point x="3445" y="2306"/>
      <point x="3445" y="2552" type="curve" smooth="yes"/>
      <point x="3445" y="2798"/>
      <point x="3629" y="2957"/>
      <point x="3846" y="2957" type="curve" smooth="yes"/>
      <point x="3928" y="2957"/>
      <point x="4014" y="2920"/>
      <point x="4047" y="2871" type="curve"/>
      <point x="3986" y="2973"/>
      <point x="3805" y="3047"/>
      <point x="3604" y="3047" type="curve" smooth="yes"/>
      <point x="3260" y="3047"/>
      <point x="2982" y="2724"/>
      <point x="2892" y="2212" type="curve" smooth="yes"/>
      <point x="2535" y="156" type="line" smooth="yes"/>
      <point x="2396" y="-639"/>
      <point x="1847" y="-860"/>
      <point x="1315" y="-860" type="curve" smooth="yes"/>
      <point x="860" y="-860"/>
      <point x="590" y="-586"/>
      <point x="590" y="-332" type="curve" smooth="yes"/>
      <point x="590" y="-82"/>
      <point x="737" y="86"/>
      <point x="983" y="86" type="curve" smooth="yes"/>
      <point x="1208" y="86"/>
      <point x="1421" y="-53"/>
      <point x="1421" y="-299" type="curve" smooth="yes"/>
      <point x="1421" y="-545"/>
      <point x="1241" y="-705"/>
      <point x="1024" y="-705" type="curve" smooth="yes"/>
      <point x="934" y="-705"/>
      <point x="848" y="-663"/>
      <point x="823" y="-618" type="curve"/>
      <point x="876" y="-704"/>
      <point x="1049" y="-795"/>
      <point x="1221" y="-795" type="curve" smooth="yes"/>
      <point x="1508" y="-795"/>
      <point x="1683" y="-459"/>
      <point x="1769" y="41" type="curve" smooth="yes"/>
      <point x="2126" y="2097" type="line" smooth="yes"/>
      <point x="2265" y="2892"/>
      <point x="2896" y="3113"/>
      <point x="3510" y="3113" type="curve" smooth="yes"/>
      <point x="4014" y="3113"/>
      <point x="4276" y="2839"/>
    </contour>
    <contour>
      <point x="2413" y="2666" type="curve"/>
      <point x="2360" y="2752"/>
      <point x="2183" y="2843"/>
      <point x="2011" y="2843" type="curve" smooth="yes"/>
      <point x="1724" y="2843"/>
      <point x="1573" y="2638"/>
      <point x="1487" y="2138" type="curve" smooth="yes"/>
      <point x="1106" y="-49" type="line" smooth="yes"/>
      <point x="967" y="-844"/>
      <point x="417" y="-1065"/>
      <point x="-115" y="-1065" type="curve" smooth="yes"/>
      <point x="-570" y="-1065"/>
      <point x="-840" y="-791"/>
      <point x="-840" y="-537" type="curve" smooth="yes"/>
      <point x="-840" y="-287"/>
      <point x="-692" y="-119"/>
      <point x="-446" y="-119" type="curve" smooth="yes"/>
      <point x="-221" y="-119"/>
      <point x="-8" y="-258"/>
      <point x="-8" y="-504" type="curve" smooth="yes"/>
      <point x="-8" y="-750"/>
      <point x="-193" y="-909"/>
      <point x="-410" y="-909" type="curve" smooth="yes"/>
      <point x="-500" y="-909"/>
      <point x="-585" y="-868"/>
      <point x="-610" y="-823" type="curve"/>
      <point x="-557" y="-909"/>
      <point x="-381" y="-999"/>
      <point x="-209" y="-999" type="curve" smooth="yes"/>
      <point x="78" y="-999"/>
      <point x="254" y="-664"/>
      <point x="340" y="-164" type="curve" smooth="yes"/>
      <point x="696" y="1892" type="line" smooth="yes"/>
      <point x="835" y="2687"/>
      <point x="1385" y="2908"/>
      <point x="1917" y="2908" type="curve" smooth="yes"/>
      <point x="2372" y="2908"/>
      <point x="2642" y="2634"/>
      <point x="2642" y="2380" type="curve" smooth="yes"/>
      <point x="2642" y="2130"/>
      <point x="2495" y="1962"/>
      <point x="2249" y="1962" type="curve" smooth="yes"/>
      <point x="2024" y="1962"/>
      <point x="1810" y="2101"/>
      <point x="1810" y="2347" type="curve" smooth="yes"/>
      <point x="1810" y="2593"/>
      <point x="1995" y="2753"/>
      <point x="2212" y="2753" type="curve" smooth="yes"/>
      <point x="2302" y="2753"/>
      <point x="2372" y="2715"/>
    </contour>
  </outline>
</glyph>
<glyph name="fj.lig" format="1">
  <advance width="3211"/>
  <outline>
    <contour>
      <point x="1724" y="287" type="curve" smooth="yes"/>
      <point x="2085" y="1827" type="line"/>
      <point x="352" y="1827" type="line"/>
      <point x="352" y="1884" type="line"/>
      <point x="2879" y="1884" type="line"/>
      <point x="2523" y="156" type="line" smooth="yes"/>
      <point x="2417" y="-356"/>
      <point x="1818" y="-860"/>
      <point x="1286" y="-860" type="curve" smooth="yes"/>
      <point x="913" y="-860"/>
      <point x="578" y="-626"/>
      <point x="578" y="-352" type="curve" smooth="yes"/>
      <point x="578" y="-102"/>
      <point x="790" y="86"/>
      <point x="1036" y="86" type="curve" smooth="yes"/>
      <point x="1261" y="86"/>
      <point x="1450" y="-81"/>
      <point x="1450" y="-274" type="curve" smooth="yes"/>
      <point x="1450" y="-507"/>
      <point x="1249" y="-696"/>
      <point x="1028" y="-696" type="curve" smooth="yes"/>
      <point x="958" y="-696"/>
      <point x="869" y="-667"/>
      <point x="844" y="-614" type="curve"/>
      <point x="910" y="-729"/>
      <point x="1090" y="-791"/>
      <point x="1266" y="-791" type="curve" smooth="yes"/>
      <point x="1676" y="-791"/>
      <point x="1609" y="-205"/>
    </contour>
    <contour>
      <point x="2658" y="2859" type="curve"/>
      <point x="2605" y="2965"/>
      <point x="2429" y="3047"/>
      <point x="2212" y="3047" type="curve" smooth="yes"/>
      <point x="1884" y="3047"/>
      <point x="1585" y="2712"/>
      <point x="1499" y="2212" type="curve" smooth="yes"/>
      <point x="1106" y="-49" type="line" smooth="yes"/>
      <point x="967" y="-844"/>
      <point x="417" y="-1065"/>
      <point x="-115" y="-1065" type="curve" smooth="yes"/>
      <point x="-570" y="-1065"/>
      <point x="-840" y="-791"/>
      <point x="-840" y="-537" type="curve" smooth="yes"/>
      <point x="-840" y="-287"/>
      <point x="-692" y="-119"/>
      <point x="-446" y="-119" type="curve" smooth="yes"/>
      <point x="-221" y="-119"/>
      <point x="-8" y="-258"/>
      <point x="-8" y="-504" type="curve" smooth="yes"/>
      <point x="-8" y="-750"/>
      <point x="-201" y="-909"/>
      <point x="-418" y="-909" type="curve" smooth="yes"/>
      <point x="-516" y="-909"/>
      <point x="-598" y="-840"/>
      <point x="-614" y="-811" type="curve"/>
      <point x="-569" y="-893"/>
      <point x="-397" y="-999"/>
      <point x="-209" y="-999" type="curve" smooth="yes"/>
      <point x="78" y="-999"/>
      <point x="254" y="-664"/>
      <point x="340" y="-164" type="curve" smooth="yes"/>
      <point x="733" y="2097" type="line" smooth="yes"/>
      <point x="872" y="2892"/>
      <point x="1504" y="3113"/>
      <point x="2118" y="3113" type="curve" smooth="yes"/>
      <point x="2655" y="3113"/>
      <point x="2884" y="2839"/>
      <point x="2884" y="2585" type="curve" smooth="yes"/>
      <point x="2884" y="2335"/>
      <point x="2736" y="2167"/>
      <point x="2490" y="2167" type="curve" smooth="yes"/>
      <point x="2265" y="2167"/>
      <point x="2052" y="2306"/>
      <point x="2052" y="2552" type="curve" smooth="yes"/>
      <point x="2052" y="2798"/>
      <point x="2245" y="2957"/>
      <point x="2462" y="2957" type="curve" smooth="yes"/>
      <point x="2548" y="2957"/>
      <point x="2621" y="2904"/>
    </contour>
  </outline>
</glyph>
<glyph name="v.alt" format="1">
  <advance width="2482"/>
  <outline>
    <contour>
      <point x="1085" y="1946" type="curve"/>
      <point x="1106" y="1909" type="line"/>
      <point x="938" y="1815"/>
      <point x="881" y="1720"/>
      <point x="881" y="1556" type="curve" smooth="yes"/>
      <point x="881" y="1228"/>
      <point x="1368" y="1061"/>
      <point x="1368" y="553" type="curve" smooth="yes"/>
      <point x="1368" y="483"/>
      <point x="1351" y="307"/>
      <point x="1343" y="213" type="curve"/>
      <point x="1961" y="532"/>
      <point x="2404" y="868"/>
      <point x="2404" y="1409" type="curve" smooth="yes"/>
      <point x="2404" y="1417"/>
      <point x="2404" y="1426"/>
      <point x="2400" y="1434" type="curve"/>
      <point x="2380" y="1328"/>
      <point x="2220" y="1044"/>
      <point x="1933" y="1044" type="curve" smooth="yes"/>
      <point x="1646" y="1044"/>
      <point x="1483" y="1258"/>
      <point x="1483" y="1483" type="curve" smooth="yes"/>
      <point x="1483" y="1729"/>
      <point x="1663" y="1921"/>
      <point x="1937" y="1921" type="curve" smooth="yes"/>
      <point x="2318" y="1921"/>
      <point x="2462" y="1659"/>
      <point x="2462" y="1409" type="curve" smooth="yes"/>
      <point x="2462" y="717"/>
      <point x="1757" y="340"/>
      <point x="958" y="-49" type="curve"/>
      <point x="524" y="16" type="line"/>
      <point x="532" y="106"/>
      <point x="586" y="352"/>
      <point x="586" y="434" type="curve" smooth="yes"/>
      <point x="586" y="749"/>
      <point x="123" y="1020"/>
      <point x="123" y="1323" type="curve" smooth="yes"/>
      <point x="123" y="1651"/>
      <point x="553" y="1807"/>
    </contour>
  </outline>
</glyph>
